<?xml version='1.0' encoding='utf-8'?>
<mxfile host="app.diagrams.net"><diagram name="AWS Infra Full Icons"><mxGraphModel><root><mxCell id="0" /><mxCell id="1" parent="0" /><mxCell id="vpc" value="VPC&lt;br&gt;10.0.0.0/16&lt;br&gt;&lt;img src=&quot;https://raw.githubusercontent.com/awslabs/aws-icons-for-plantuml/v14.0/AWS-Simple-Icons/Light/Networking/Amazon-VPC.png&quot; width=&quot;32&quot; height=&quot;32&quot;/&gt;" style="shape=rectangle;whiteSpace=wrap;html=1;fillColor=none;strokeColor=none;fontSize=12;" vertex="1" parent="1"><mxGeometry as="geometry" x="50" y="50" width="200" height="60" /></mxCell><mxCell id="igw" value="Internet Gateway&lt;br&gt;&lt;img src=&quot;https://raw.githubusercontent.com/awslabs/aws-icons-for-plantuml/v14.0/AWS-Simple-Icons/Light/Networking/Amazon-VPC.png&quot; width=&quot;32&quot; height=&quot;32&quot;/&gt;" style="shape=rectangle;whiteSpace=wrap;html=1;fillColor=none;strokeColor=none;fontSize=12;" vertex="1" parent="1"><mxGeometry as="geometry" x="50" y="150" width="200" height="60" /></mxCell><mxCell id="nat_1a" value="NAT Gateway 1a&lt;br&gt;&lt;img src=&quot;https://raw.githubusercontent.com/awslabs/aws-icons-for-plantuml/v14.0/AWS-Simple-Icons/Light/Networking/NAT-Gateway.png&quot; width=&quot;32&quot; height=&quot;32&quot;/&gt;" style="shape=rectangle;whiteSpace=wrap;html=1;fillColor=none;strokeColor=none;fontSize=12;" vertex="1" parent="1"><mxGeometry as="geometry" x="250" y="150" width="200" height="60" /></mxCell><mxCell id="alb" value="Application Load Balancer&lt;br&gt;&lt;img src=&quot;https://raw.githubusercontent.com/awslabs/aws-icons-for-plantuml/v14.0/AWS-Simple-Icons/Light/Networking/Application-Load-Balancer.png&quot; width=&quot;32&quot; height=&quot;32&quot;/&gt;" style="shape=rectangle;whiteSpace=wrap;html=1;fillColor=none;strokeColor=none;fontSize=12;" vertex="1" parent="1"><mxGeometry as="geometry" x="450" y="50" width="200" height="60" /></mxCell><mxCell id="web_1a" value="EC2 Web Server 1a&lt;br&gt;44.214.44.90&lt;br&gt;&lt;img src=&quot;https://raw.githubusercontent.com/awslabs/aws-icons-for-plantuml/v14.0/AWS-Simple-Icons/Light/Compute/Amazon-EC2.png&quot; width=&quot;32&quot; height=&quot;32&quot;/&gt;" style="shape=rectangle;whiteSpace=wrap;html=1;fillColor=none;strokeColor=none;fontSize=12;" vertex="1" parent="1"><mxGeometry as="geometry" x="450" y="150" width="200" height="60" /></mxCell><mxCell id="web_1b" value="EC2 Web Server 1b&lt;br&gt;13.222.211.246&lt;br&gt;&lt;img src=&quot;https://raw.githubusercontent.com/awslabs/aws-icons-for-plantuml/v14.0/AWS-Simple-Icons/Light/Compute/Amazon-EC2.png&quot; width=&quot;32&quot; height=&quot;32&quot;/&gt;" style="shape=rectangle;whiteSpace=wrap;html=1;fillColor=none;strokeColor=none;fontSize=12;" vertex="1" parent="1"><mxGeometry as="geometry" x="450" y="250" width="200" height="60" /></mxCell><mxCell id="app_1a" value="EC2 App Server 1a&lt;br&gt;10.0.3.208&lt;br&gt;&lt;img src=&quot;https://raw.githubusercontent.com/awslabs/aws-icons-for-plantuml/v14.0/AWS-Simple-Icons/Light/Compute/Amazon-EC2.png&quot; width=&quot;32&quot; height=&quot;32&quot;/&gt;" style="shape=rectangle;whiteSpace=wrap;html=1;fillColor=none;strokeColor=none;fontSize=12;" vertex="1" parent="1"><mxGeometry as="geometry" x="650" y="150" width="200" height="60" /></mxCell><mxCell id="app_1b" value="EC2 App Server 1b&lt;br&gt;10.0.4.45&lt;br&gt;&lt;img src=&quot;https://raw.githubusercontent.com/awslabs/aws-icons-for-plantuml/v14.0/AWS-Simple-Icons/Light/Compute/Amazon-EC2.png&quot; width=&quot;32&quot; height=&quot;32&quot;/&gt;" style="shape=rectangle;whiteSpace=wrap;html=1;fillColor=none;strokeColor=none;fontSize=12;" vertex="1" parent="1"><mxGeometry as="geometry" x="650" y="250" width="200" height="60" /></mxCell><mxCell id="rds" value="RDS MySQL&lt;br&gt;rooman-academy-mysql&lt;br&gt;&lt;img src=&quot;https://raw.githubusercontent.com/awslabs/aws-icons-for-plantuml/v14.0/AWS-Simple-Icons/Light/Database/Amazon-RDS.png&quot; width=&quot;32&quot; height=&quot;32&quot;/&gt;" style="shape=rectangle;whiteSpace=wrap;html=1;fillColor=none;strokeColor=none;fontSize=12;" vertex="1" parent="1"><mxGeometry as="geometry" x="850" y="200" width="200" height="60" /></mxCell><mxCell id="s3" value="S3 Bucket&lt;br&gt;rooman-backup-bucket&lt;br&gt;&lt;img src=&quot;https://raw.githubusercontent.com/awslabs/aws-icons-for-plantuml/v14.0/AWS-Simple-Icons/Light/Storage/Amazon-S3.png&quot; width=&quot;32&quot; height=&quot;32&quot;/&gt;" style="shape=rectangle;whiteSpace=wrap;html=1;fillColor=none;strokeColor=none;fontSize=12;" vertex="1" parent="1"><mxGeometry as="geometry" x="850" y="50" width="200" height="60" /></mxCell><mxCell id="sns" value="SNS Topic&lt;br&gt;rooman-alerts&lt;br&gt;&lt;img src=&quot;https://raw.githubusercontent.com/awslabs/aws-icons-for-plantuml/v14.0/AWS-Simple-Icons/Light/Messaging/Amazon-SNS.png&quot; width=&quot;32&quot; height=&quot;32&quot;/&gt;" style="shape=rectangle;whiteSpace=wrap;html=1;fillColor=none;strokeColor=none;fontSize=12;" vertex="1" parent="1"><mxGeometry as="geometry" x="250" y="300" width="200" height="60" /></mxCell><mxCell id="cw" value="CloudWatch Alarm&lt;br&gt;CPU High&lt;br&gt;&lt;img src=&quot;https://raw.githubusercontent.com/awslabs/aws-icons-for-plantuml/v14.0/AWS-Simple-Icons/Light/Management-and-Governance/Amazon-CloudWatch.png&quot; width=&quot;32&quot; height=&quot;32&quot;/&gt;" style="shape=rectangle;whiteSpace=wrap;html=1;fillColor=none;strokeColor=none;fontSize=12;" vertex="1" parent="1"><mxGeometry as="geometry" x="450" y="350" width="200" height="60" /></mxCell><mxCell id="secrets" value="Secrets Manager&lt;br&gt;DB Password&lt;br&gt;&lt;img src=&quot;https://raw.githubusercontent.com/awslabs/aws-icons-for-plantuml/v14.0/AWS-Simple-Icons/Light/Security-Identity-and-Compliance/AWS-Secrets-Manager.png&quot; width=&quot;32&quot; height=&quot;32&quot;/&gt;" style="shape=rectangle;whiteSpace=wrap;html=1;fillColor=none;strokeColor=none;fontSize=12;" vertex="1" parent="1"><mxGeometry as="geometry" x="650" y="350" width="200" height="60" /></mxCell></root></mxGraphModel></diagram></mxfile>